<svg
  xmlns="http://www.w3.org/2000/svg"
  width="512"
  height="512"
  viewBox="0 0 512 512"
  fill="none"
>
  <defs>
    <linearGradient id="bg" x1="88" y1="72" x2="424" y2="440" gradientUnits="userSpaceOnUse">
      <stop stop-color="#22C7D8" />
      <stop offset="1" stop-color="#FB923C" />
    </linearGradient>
    <linearGradient
      id="panel"
      x1="128"
      y1="132"
      x2="392"
      y2="392"
      gradientUnits="userSpaceOnUse"
    >
      <stop stop-color="#FFFFFF" stop-opacity="0.96" />
      <stop offset="1" stop-color="#F3F8FB" stop-opacity="0.92" />
    </linearGradient>
  </defs>

  <rect x="32" y="32" width="448" height="448" rx="128" fill="url(#bg)" />
  <rect x="72" y="72" width="368" height="368" rx="104" fill="#0F172A" fill-opacity="0.08" />
  <rect x="112" y="116" width="288" height="280" rx="52" fill="url(#panel)" />

  <rect x="148" y="160" width="216" height="12" rx="6" fill="#D8E5ED" />
  <rect x="148" y="198" width="216" height="12" rx="6" fill="#E5EEF4" />
  <rect x="148" y="236" width="216" height="12" rx="6" fill="#D8E5ED" />
  <rect x="148" y="274" width="216" height="12" rx="6" fill="#E5EEF4" />
  <rect x="148" y="312" width="216" height="12" rx="6" fill="#D8E5ED" />

  <rect x="170" y="152" width="132" height="28" rx="14" fill="#169DC0" />
  <rect x="220" y="228" width="116" height="28" rx="14" fill="#FB923C" />
  <rect x="182" y="304" width="154" height="28" rx="14" fill="#169DC0" fill-opacity="0.9" />

  <circle cx="350" cy="360" r="52" fill="#FFF7ED" />
  <circle cx="350" cy="360" r="38" fill="#FFFFFF" />
  <path
    d="M350 336V360L366 372"
    stroke="#FB923C"
    stroke-width="14"
    stroke-linecap="round"
    stroke-linejoin="round"
  />
  <circle cx="350" cy="360" r="6" fill="#FB923C" />
</svg>
