<?xml version="1.0" encoding="UTF-8" standalone="no"?>
<svg
   version="1.0"
   width="1266px"
   height="317px"
   viewBox="0 0 1266 317"
   preserveAspectRatio="xMidYMid meet"
   id="svg19"
   sodipodi:docname="FreeSample-Vectorizer-io-Screenshot 2026-05-04 031914.svg"
   inkscape:version="1.4.2 (f4327f4, 2025-05-13)"
   xmlns:inkscape="http://www.inkscape.org/namespaces/inkscape"
   xmlns:sodipodi="http://sodipodi.sourceforge.net/DTD/sodipodi-0.dtd"
   xmlns="http://www.w3.org/2000/svg"
   xmlns:svg="http://www.w3.org/2000/svg">
  <defs
     id="defs19" />
  <sodipodi:namedview
     id="namedview19"
     pagecolor="#ffffff"
     bordercolor="#000000"
     borderopacity="0.25"
     inkscape:showpageshadow="2"
     inkscape:pageopacity="0.0"
     inkscape:pagecheckerboard="0"
     inkscape:deskcolor="#d1d1d1"
     inkscape:zoom="0.95418641"
     inkscape:cx="441.73758"
     inkscape:cy="-59.212748"
     inkscape:window-width="2560"
     inkscape:window-height="1369"
     inkscape:window-x="-8"
     inkscape:window-y="-8"
     inkscape:window-maximized="1"
     inkscape:current-layer="svg19" />
  <g
     fill="#191919"
     id="g18">
    <path
       d="M555.36 205.85 c-17.43 -3.15 -31.03 -15.76 -35.85 -33.38 -1.73 -6.31 -1.61 -19.78 0.25 -26.21 2.35 -8.22 5.87 -14.16 11.87 -20.21 4.39 -4.45 6.18 -5.81 11.13 -8.22 3.21 -1.55 7.67 -3.34 9.89 -3.89 5.32 -1.36 15.58 -1.36 21.33 0.06 5.63 1.36 13.54 5.19 16.94 8.22 l2.66 2.35 -4.76 6.06 -4.76 6 -2.91 -2.10 c-17.12 -12.49 -37.96 -5.93 -45.06 14.09 -2.10 6 -2.23 14.77 -0.31 21.08 3.52 11.25 12.18 18.98 23.43 20.83 7.05 1.17 15.52 -0.87 20.77 -5.07 3.59 -2.91 4.57 -2.53 9.03 3.09 2.10 2.72 3.83 5.19 3.83 5.50 0 0.31 -1.24 1.67 -2.78 3.03 -3.28 2.84 -10.20 6.37 -15.45 7.85 -4.45 1.17 -14.84 1.73 -19.22 0.93z"
       id="path10" />
    <path
       d="M731.91 205.60 c-8.78 -1.92 -15.02 -5.13 -21.33 -11 -9.89 -9.21 -14.71 -20.77 -14.65 -35.11 0 -18.54 9.21 -34.25 24.54 -41.79 7.60 -3.71 12.18 -4.82 20.09 -4.82 10.26 0.06 18.61 2.84 27.01 9.15 18.11 13.60 22.93 42.34 10.63 63.24 -2.72 4.57 -10.39 12.24 -14.96 14.96 -6.24 3.65 -13.23 5.69 -20.71 5.93 -4.27 0.19 -8.04 0 -10.63 -0.56z m13.35 -15.27 c7.54 -1.36 15.33 -6.74 19.04 -13.17 5.63 -9.58 6 -22.93 1.05 -33.38 -5.19 -10.82 -17.56 -17.31 -29.18 -15.27 -13.79 2.47 -23.06 13.91 -23.86 29.42 -0.87 15.89 8.28 29.12 22.25 32.14 4.82 1.05 6.18 1.11 10.69 0.25z"
       id="path11" />
    <path
       d="M981.03 159.49 l0 -45.19 7.91 0.19 7.85 0.19 0.19 37.28 0.12 37.21 21.02 0 21.08 0 -0.19 7.60 -0.19 7.54 -28.87 0.19 -28.93 0.12 0 -45.13z"
       id="path12" />
    <path
       d="M1168.58 203.69 c-0.12 -0.31 -0.19 -20.52 -0.12 -44.82 l0.19 -44.20 23.18 0.25 c19.84 0.19 23.80 0.37 27.63 1.36 8.53 2.16 13.66 6 16.57 12.49 4.39 9.64 1.61 22.44 -6 27.45 -1.30 0.87 -2.35 1.79 -2.35 1.98 0 0.25 1.11 0.93 2.41 1.48 9.52 4.20 13.60 16.94 9.27 28.62 -1.73 4.64 -6.80 9.83 -11.87 12.24 -6.80 3.21 -10.39 3.59 -35.61 3.65 -14.90 0.06 -23.18 -0.12 -23.30 -0.49z m50.75 -16.69 c3.59 -2.23 5.25 -5.13 5.25 -9.15 0 -5.93 -3.09 -9.52 -9.58 -11.25 -2.78 -0.68 -6.99 -0.93 -17.12 -0.93 l-13.48 0 0 11.81 0 11.75 15.95 -0.19 16.01 -0.19 2.97 -1.85z m-3.52 -37.03 c5.56 -3.09 7.73 -8.84 5.13 -14.09 -2.72 -5.69 -7.11 -6.80 -24.79 -6.55 l-11.44 0.19 -0.19 11.31 -0.12 11.37 14.03 -0.25 14.09 -0.19 3.28 -1.79z"
       id="path13" />
    <path
       d="M321.45 159.18 l0 -44.82 5.81 0 5.81 0 6.68 8.28 c3.71 4.51 14.53 17.99 24.05 29.92 9.52 11.93 17.49 21.70 17.80 21.70 0.25 0.06 0.43 -13.41 0.43 -29.92 l0 -29.98 7.73 0 7.73 0 0 44.82 0 44.82 -5.69 0 -5.75 0 -12.36 -15.27 c-6.80 -8.41 -17.43 -21.64 -23.68 -29.36 -6.24 -7.79 -11.56 -14.09 -11.93 -14.09 -0.31 0 -0.56 11.31 -0.56 29.36 l0 29.36 -8.04 0 -8.04 0 0 -44.82z"
       id="path14" />
    <path
       d="M432.10 159.18 l0 -44.82 31.40 0.12 31.34 0.19 0 7.42 0 7.42 -23.61 0.19 -23.68 0.12 0 11.13 0 11.13 20.40 0 20.40 0 0 7.11 0 7.11 -20.21 0.12 -20.28 0.19 -0.19 11.31 -0.12 11.25 23.80 0 23.80 0 0 7.42 0 7.42 -31.53 0 -31.53 0 0 -44.82z"
       id="path15" />
    <path
       d="M634.85 166.90 l0 -37.09 -13.29 0 -13.29 0 0 -7.73 0 -7.73 34.80 0.12 34.74 0.19 0 7.42 0 7.42 -13.41 0.19 -13.48 0.12 0 37.09 0 37.09 -8.04 0 -8.04 0 0 -37.09z"
       id="path16" />
    <path
       d="M828.96 195.83 c-1.42 -4.51 -5.75 -18.11 -9.58 -30.17 -8.10 -25.41 -14.90 -47.17 -15.52 -49.64 l-0.37 -1.73 8.22 0.19 8.28 0.19 6.86 23.80 c3.77 13.11 7.67 26.89 8.72 30.60 1.05 3.77 2.04 6.37 2.23 5.87 0.19 -0.49 2.47 -8.72 5.07 -18.24 2.53 -9.52 6.24 -22.87 8.22 -29.67 l3.52 -12.36 6.24 -0.19 6.31 -0.19 0.37 1.73 c0.56 2.35 15.82 57.12 16.26 58.29 0.49 1.42 0.68 0.87 8.78 -27.82 4.14 -14.47 7.85 -27.51 8.35 -29.05 l0.80 -2.78 8.16 -0.19 c7.11 -0.12 8.10 -0.06 8.10 0.87 0 0.49 -2.78 9.64 -6.12 20.21 -3.40 10.63 -9.15 28.62 -12.73 40 -3.65 11.37 -7.17 22.44 -7.79 24.60 l-1.24 3.83 -6.12 0 -6.06 0 -0.68 -1.98 c-1.48 -4.64 -14.90 -53.29 -14.90 -54.09 0 -0.56 -0.49 -0.80 -1.36 -0.68 -1.67 0.25 -0.80 -2.47 -9.95 30.78 l-6.99 25.65 -6.24 0.19 -6.24 0.19 -2.60 -8.22z"
       id="path17" />
    <path
       d="M1057.43 201.71 c4.02 -9.58 12.36 -29.92 17.56 -42.84 7.17 -17.93 16.44 -40.30 17.74 -42.84 l0.87 -1.73 7.23 0.19 c6.99 0.19 7.23 0.25 7.97 1.73 0.74 1.36 8.65 20.71 24.73 60.27 2.91 7.17 6.61 16.26 8.28 20.28 l2.97 7.23 -8.47 0 -8.47 -0.06 -3.40 -8.78 -3.46 -8.78 -20.34 0 -20.34 0 -3.40 8.84 -3.34 8.78 -8.59 0 -8.53 0 0.99 -2.29z m57.74 -29.80 c0 -0.31 -2.91 -7.97 -6.49 -17 -3.59 -9.09 -6.49 -16.75 -6.49 -17.06 0 -0.37 -0.62 -0.62 -1.36 -0.62 -1.30 0 -2.10 1.79 -8.10 17.18 -3.65 9.40 -6.61 17.31 -6.61 17.62 0 0.25 6.55 0.43 14.53 0.43 8.28 0 14.53 -0.25 14.53 -0.56z"
       id="path18" />
  </g>
  <g
     fill="#1d83bc"
     id="g19">
    <path
       d="M107.07 281.26 c-9.52 -2.53 -17.86 -8.53 -23 -16.57 l-2.78 -4.39 -4.39 -0.06 c-10.57 0 -19.04 -3.46 -26.70 -10.82 -10.94 -10.45 -15.15 -23.92 -11.56 -37.09 0.31 -0.99 -0.56 -1.92 -3.96 -4.51 -7.54 -5.75 -12.61 -13.79 -14.53 -23.18 -2.16 -10.45 -0.19 -20.46 5.81 -29.18 l1.92 -2.78 -1.92 -2.78 c-7.97 -11.56 -8.90 -26.09 -2.53 -38.94 2.91 -5.81 6.49 -10.08 11.75 -13.91 2.10 -1.55 3.65 -3.09 3.52 -3.46 -0.19 -0.43 -0.62 -2.97 -0.99 -5.69 -1.30 -8.90 1.11 -18.05 7.05 -26.33 7.42 -10.39 19.53 -16.44 32.82 -16.44 l3.89 0 1.85 -3.28 c5.19 -9.15 15.82 -16.63 26.15 -18.30 13.66 -2.23 25.47 1.05 34.49 9.58 l4.20 3.89 1.36 -1.79 c3.15 -4.33 12.43 -9.77 19.35 -11.44 5.01 -1.17 14.53 -1.17 19.66 0.06 9.27 2.16 17.74 8.22 23.37 16.81 l2.97 4.45 6.12 0.25 c10.39 0.37 18.24 3.77 25.84 11.31 4.20 4.20 7.11 8.59 9.58 14.53 1.42 3.46 1.61 4.70 1.67 11.62 0 4.27 -0.25 8.59 -0.49 9.71 -0.49 1.79 -0.31 2.04 2.23 3.83 16.69 11.44 21.88 35.98 11.13 51.99 -1.30 1.85 -2.47 3.59 -2.53 3.89 -0.12 0.25 0.87 2.16 2.23 4.33 4.39 6.92 5.38 10.69 5.38 20.21 0 7.11 -0.19 9.03 -1.48 12.86 -2.47 7.54 -7.91 14.65 -14.71 19.35 -2.66 1.85 -2.78 1.98 -2.23 4.20 0.25 1.24 0.49 5.56 0.43 9.64 0 6.49 -0.25 7.91 -1.67 11.68 -4.27 10.88 -12.12 18.85 -23.37 23.55 -3.28 1.42 -5.13 1.79 -11.07 2.04 l-7.11 0.31 -2.78 4.33 c-7.67 11.87 -20.65 18.30 -35.79 17.62 -9.95 -0.49 -17.56 -3.52 -24.42 -9.83 -1.85 -1.67 -3.71 -3.03 -4.08 -3.03 -0.43 0 -2.35 1.48 -4.27 3.34 -3.96 3.77 -10.76 7.23 -16.75 8.65 -5.50 1.30 -14.09 1.17 -19.66 -0.25z m19.84 -16.50 c4.64 -2.23 8.22 -5.56 10.88 -10.20 l1.92 -3.28 0 -30.10 0 -30.10 -15.89 -0.19 c-17.62 -0.25 -19.16 -0.49 -26.70 -4.95 -7.60 -4.51 -15.52 -14.59 -17.49 -22.32 l-0.74 -2.97 -18.48 0.19 -18.48 0.19 -2.10 2.47 c-4.33 5.13 -5.93 13.85 -3.71 20.46 2.10 6.43 8.28 12.30 15.39 14.77 3.65 1.24 3.83 1.42 5.32 4.82 l1.48 3.46 -2.41 4.51 c-2.29 4.20 -2.41 4.82 -2.41 9.77 0 4.39 0.25 5.81 1.67 8.78 3.59 7.73 11.31 13.29 19.29 13.91 l4.08 0.37 0 -3.15 c0 -4.39 2.04 -10.45 4.95 -14.59 l2.47 -3.52 -1.48 -1.98 c-3.59 -4.82 -5.93 -11.44 -5.93 -17 l0 -3.28 7.85 0.19 7.79 0.19 0.74 3.40 c0.93 4.64 3.15 8.96 6.49 12.36 2.97 3.03 9.21 6.49 12.92 7.17 1.24 0.19 2.53 0.74 2.84 1.17 0.37 0.43 0.56 3.77 0.43 8.04 l-0.19 7.29 -4.02 -0.43 c-4.02 -0.43 -10.01 -2.29 -12.30 -3.83 -0.68 -0.49 -1.92 -0.87 -2.84 -0.87 -2.23 0 -3.15 2.23 -3.46 8.35 -0.37 6.24 1.11 10.63 5.19 15.15 7.11 7.91 17.49 10.14 26.95 5.75z m60.70 0.43 c2.72 -1.05 4.76 -2.47 7.54 -5.25 3.15 -3.21 3.96 -4.45 5.07 -7.97 0.74 -2.35 1.30 -5.50 1.30 -7.11 -0.06 -3.83 -1.85 -8.96 -3.28 -9.21 -0.62 -0.12 -3.46 0.80 -6.31 2.04 -3.65 1.55 -6.55 2.35 -9.58 2.60 l-4.33 0.37 0 -7.79 0 -7.85 1.73 -0.37 c11.44 -2.53 18.24 -8.84 21.14 -19.72 l0.93 -3.71 7.91 -0.19 7.85 -0.19 0 2.35 c0 5.19 -2.84 13.35 -6.31 18.24 l-1.17 1.67 2.23 3.34 c2.97 4.45 4.64 9.03 5.07 13.91 l0.37 3.96 4.08 -0.25 c5.56 -0.43 10.39 -2.84 14.59 -7.42 4.33 -4.64 6.12 -9.09 6.12 -15.39 0.06 -4.27 -0.12 -5.13 -2.29 -9.21 -2.16 -4.14 -2.29 -4.57 -1.61 -6.99 1.05 -4.08 2.10 -5.19 5.69 -6.24 7.11 -2.04 14.22 -9.46 15.89 -16.50 1.61 -6.74 -0.19 -14.09 -4.64 -19.04 l-2.35 -2.53 -17.93 0.12 -17.93 0.19 -1.73 4.20 c-1.85 4.64 -4.64 9.52 -7.29 12.73 -2.04 2.53 -1.92 2.60 -8.96 -3.83 l-5.25 -4.82 2.72 -3.83 c5.13 -7.42 5.93 -14.28 2.47 -22.01 -2.23 -4.88 -7.48 -9.95 -12.43 -11.75 -3.15 -1.24 -4.51 -1.30 -17.12 -1.17 l-13.72 0.19 -0.19 59.59 -0.12 59.59 1.48 3.28 c2.78 6.06 8.78 11.25 15.15 13.04 3.96 1.11 10.76 0.62 15.21 -1.05z m-47.91 -150.21 l0 -60.02 -1.79 -3.52 c-2.41 -4.76 -6.31 -8.59 -11.07 -10.82 -3.71 -1.73 -4.20 -1.79 -10.51 -1.55 -7.60 0.31 -10.08 1.24 -14.96 5.81 -4.20 3.96 -6.31 8.53 -6.68 14.47 -0.25 4.51 0.93 10.57 2.29 11.37 0.19 0.19 2.41 -0.74 4.95 -1.98 3.89 -1.92 5.19 -2.23 10.01 -2.47 l5.50 -0.25 0 7.36 0 7.36 -3.59 0.74 c-8.53 1.73 -15.70 7.91 -18.05 15.33 -0.68 2.23 -1.24 4.88 -1.24 5.87 l0 1.79 -8.04 0 -8.04 0 0 -2.97 c0 -4.33 1.55 -9.64 4.45 -15.02 l2.53 -4.76 -1.61 -2.04 c-3.09 -4.20 -4.57 -8.22 -5.75 -15.95 l-0.37 -2.72 -3.96 0.37 c-5.25 0.37 -9.77 2.66 -13.79 6.92 -4.76 5.01 -6.55 9.27 -6.55 15.52 0 4.57 0.19 5.38 2.41 9.77 l2.41 4.76 -1.61 3.34 c-1.48 3.09 -1.79 3.34 -6 4.95 -5.56 2.10 -10.51 6.49 -13.11 11.68 -1.55 3.03 -1.98 4.76 -2.23 8.78 -0.37 6.49 0.87 10.26 4.64 14.47 l2.78 3.09 18.17 0 c15.82 0 18.17 -0.12 18.17 -0.93 0 -3.03 8.47 -18.24 10.20 -18.24 0.37 0 3.28 2.47 6.49 5.50 l5.87 5.50 -1.98 2.04 c-1.11 1.17 -2.72 3.77 -3.65 5.81 -1.42 3.03 -1.73 4.51 -1.67 8.53 0 4.27 0.31 5.32 2.29 9.40 2.91 5.93 7.91 10.26 13.97 12.12 0.87 0.25 7.73 0.49 15.33 0.49 l13.72 0.06 0 -59.96z m115.66 27.14 c11.13 -11.13 4.39 -31.28 -12.05 -36.04 -2.16 -0.62 -2.78 -1.17 -4.20 -4.14 l-1.73 -3.40 2.60 -5.13 c2.41 -4.64 2.60 -5.50 2.60 -9.52 -0.06 -3.03 -0.49 -5.56 -1.42 -7.97 -2.78 -7.23 -11.13 -13.79 -18.30 -14.53 -4.27 -0.43 -5.01 0.12 -5.44 4.33 -0.56 4.45 -2.47 9.77 -4.70 13.04 -1.05 1.55 -1.92 3.03 -1.92 3.40 0 0.31 0.80 1.92 1.85 3.59 2.60 4.20 4.45 9.71 4.82 14.59 l0.31 4.14 -8.04 0 -7.97 0 -0.80 -3.83 c-2.04 -10.01 -8.90 -16.94 -19.10 -19.29 l-3.52 -0.80 -0.19 -7.48 -0.19 -7.54 3.03 0 c3.89 0 9.15 1.42 13.66 3.71 4.14 2.04 4.33 1.98 5.87 -2.66 3.28 -9.83 -2.16 -21.64 -12.05 -26.09 -3.52 -1.55 -4.27 -1.67 -10.39 -1.42 -5.63 0.19 -7.05 0.43 -10.08 1.92 -4.08 1.98 -8.35 6.43 -10.63 11.07 l-1.61 3.21 0 29.55 0 29.55 14.40 0 c10.82 0 15.33 0.25 18.05 0.93 12.43 3.15 22.81 12.61 27.26 24.85 l1.67 4.51 17.80 0 17.86 0 2.53 -2.53z"
       id="path19" />
  </g>
</svg>
